<svg width="1062" height="368" viewBox="0 0 1062 368" fill="none" xmlns="http://www.w3.org/2000/svg">
<g clip-path="url(#clip0_1_1112)">
<rect width="1062" height="368" rx="32" fill="#B9D3F4"/>
<mask id="mask0_1_1112" style="mask-type:alpha" maskUnits="userSpaceOnUse" x="-84" y="-87" width="1000" height="913">
<path d="M10.4841 311.445L107.22 509.115L493.306 320.171L200.147 699.024L362.958 825.008L912.251 115.147L915.689 113.464L818.953 -84.2056L816.889 -83.1955L816.892 -84.4763L-82.9816 -86.2743L-83.3929 119.587L400.55 120.554L10.4841 311.445Z" fill="#FABD05"/>
</mask>
<g mask="url(#mask0_1_1112)">
<rect x="-721.379" y="4.50153" width="1924.75" height="1282.89" transform="rotate(-24.0763 -721.379 4.50153)" fill="#B9D3F4"/>
<rect x="-790.663" y="-344.632" width="1720.89" height="1131.33" rx="24.7452" transform="rotate(1.32032 -790.663 -344.632)" fill="#F1EBEB"/>
</g>
<g clip-path="url(#clip1_1_1112)">
<path d="M916.013 118.36L916.63 136.188L923.833 135.844L923.217 118.016L916.013 118.36Z" fill="#2C3933"/>
<path d="M902.604 109.32L888.91 121.108L893.594 126.47L907.288 114.681L902.604 109.32Z" fill="#B9D3F4"/>
<path d="M883.838 90.0709L882.477 97.1006L900.17 100.227L901.532 93.197L883.838 90.0709Z" fill="#B9D3F4"/>
<path d="M905.227 66.4512L898.844 69.8563L907.215 85.5447L913.598 82.1397L905.227 66.4512Z" fill="#2C3933"/>
<path d="M930.374 65.2507L923.117 81.6871L929.715 84.4709L936.971 68.0345L930.374 65.2507Z" fill="#2C3933"/>
<path d="M935.905 91.5568L937.748 98.433L955.167 93.6262L953.323 86.75L935.905 91.5568Z" fill="#2C3933"/>
<path d="M935.95 107.724L931.651 113.514L946.115 123.957L950.414 118.166L935.95 107.724Z" fill="#2C3933"/>
</g>
</g>
<defs>
<clipPath id="clip0_1_1112">
<rect width="1062" height="368" rx="32" fill="white"/>
</clipPath>
<clipPath id="clip1_1_1112">
<rect width="73" height="70" fill="white" transform="translate(869.839 85.2327) rotate(-28)"/>
</clipPath>
</defs>
</svg>
